<?xml version="1.0" encoding="utf-8"?>
<!-- Svg Vector Icons : http://www.onlinewebfonts.com/icon -->
<svg version="1.1" xmlns="http://www.w3.org/2000/svg" xmlns:xlink="http://www.w3.org/1999/xlink" x="0px" y="0px" viewBox="0 0 256 256" enable-background="new 0 0 256 256" xml:space="preserve">
<metadata> Svg Vector Icons : http://www.onlinewebfonts.com/icon </metadata>
<g><g><path fill="#58A6FF" d="M105.8,140c0-1.9-1-3-3.2-3H25.8v9.3h68.7c0.6,0,1,0.2,1,0.8v7.7H10v9.3h85.5v6.8c0,0.6-0.4,1-1,1H25.4v9.3h77.3c2.2,0,3.2-1.1,3.2-3.1v-13.9h13.9v-9.3h-13.9V140z M69.5,91.7v-6.3h40.7v-9.3H20v9.3h39.6v6.3H12.1c-1.2,0-1.8,0.6-1.8,1.8v24.8h9.4v-16.3c0-0.6,0.4-1,1-1h39v30.7h9.9V101h40.1c0.9,0,1.2,0.5,1.2,1.4c0,2.5-0.7,7.6-2.8,15.2l8.9,2.7c3.2-9.3,4.7-17.4,5-24.4l-8.6-4.2H69.5L69.5,91.7z M166.4,148.8l-9.6,5.6v-29.9h11.9v-9.3h-11.9V86.3h13.3V77h-36.3v9.3h12.7v28.9h-12.2v9.3h12.2v34.8l-14.4,6l3.7,9.6c14.9-5.7,26.9-11.7,36.1-17.9L166.4,148.8z M187.9,135.9c-5.7,12.6-14.4,23.3-25.6,32.3l7.8,6.3c9.6-7.2,18.5-18.9,26.2-34.6L187.9,135.9z M194.6,124.3c-5.1-9.1-10.2-16.4-15.4-22l-7.9,5.8c4.4,5,9.4,12.1,15,21.6L194.6,124.3z M221,136c3.7-5.6,8-12.7,12.8-21.5l-8.3-5.1c-2.6,5.3-5.7,10.5-9.1,15.7c-4-11.2-5.2-21-5.2-28.2H241v-9.8h-8.5l5.1-6.8c-4.5-3.1-9.2-6-13.9-8.3l-5,7.7c4.3,2.2,8.4,4.6,12.4,7.4H211V73.1h-10.4v14.1h-29.2V97h29.3v72.1c0,2.9-1,4.5-5.4,4.5c-3,0-6.7,0-12.6-2l-4.2,9.3c6.6,1.7,15.1,2.9,19.3,2.9c12.8,0,13.3-10,13.3-12.1v-32.9c5.8,12,14.5,24.3,25.9,36.5l9-5.7C234.2,158,226.3,146.6,221,136z M28.4,132.8c10.3-1.1,19.5-2.9,27.6-5.3l-3-7.9c-7.6,2.1-16.8,3.5-27.5,4.4L28.4,132.8z M28.9,104.1l-3.3,8.3c5.9,0.5,14.9,2,27,4.6l3.2-7.9C49.8,107.3,40.9,105.6,28.9,104.1z M100.5,103.8c-9.4,2.5-18.4,4.1-26.9,4.9l4,8.2c7.6-0.6,16.9-2.4,27.8-5.6L100.5,103.8z M101.6,133.4l3.4-8.1c-6.1-2.2-15.1-4.3-27.2-6.2l-3.5,8.4C84.1,128.7,93.2,130.6,101.6,133.4z"/></g></g>
</svg>